<svg xmlns="http://www.w3.org/2000/svg" viewBox="0 0 301.87 82"><defs><style>.cls-2{clip-path:url(#clip-path)}</style><clipPath id="clip-path"><path fill="none" d="M0 0h301.87v82H0z"/></clipPath></defs><g id="Layer_2" data-name="Layer 2"><g id="MENU"><g class="cls-2" id="vector"><g class="cls-2"><path d="M53.5 38.66c-4.63 0-7.62-3.79-7.62-9.63 0-6.15 2.94-10 7.68-10 4.5 0 7.3 3.69 7.3 9.63s-2.89 10-7.36 10m-.06-24.89c-9.39 0-15.69 6.06-15.69 15.08 0 9.3 5.88 15.08 15.36 15.08C62.76 43.93 69 38 69 28.74s-6-15-15.55-15m126.38.31c-8.45 0-11.9 3.57-11.9 12.33v.69c0 5.29-.13 11.12-.32 14.18l-.08 1.87H176l-.17-1.7c-.14-2.7-.21-5.24-.21-7.77v-1.49l.06-4.25v-1.53c.14-3 1.16-6.66 5.26-6.66a11.45 11.45 0 0 1 3.95.73l.42.26.86-5.71-.29-.08a24.17 24.17 0 0 0-6.07-.87m-53.65 5.61L127 14h-8.78v-1.88c.13-4.12 1.78-6.27 4.88-6.27a16 16 0 0 1 5.48.73l.37.11.77-5.6-.27-.09A33.32 33.32 0 0 0 122 0c-7.21 0-11.36 4.29-11.7 12.09v5.3l.07 10.2-.13 12.58-.14 7.59v1.74h8.2v-1.79l-.2-7.38-.1-8.11v-6.55l.09-6zm19.84 19c-4.63 0-7.62-3.79-7.62-9.63 0-6.15 2.95-10 7.69-10 4.5 0 7.29 3.69 7.29 9.63s-2.89 10-7.36 10m-.06-24.89c-9.38 0-15.68 6.06-15.68 15.08 0 9.3 5.88 15.08 15.35 15.08 9.65 0 15.88-6 15.88-15.19s-6-15-15.55-15m-44 22.26v-4.8l.07-4.81c0-7.7-4.27-12.3-11.41-12.3h-4.7c-7.15 0-11.41 4.6-11.41 12.3v1.73c0 7.55 0 9.33-.32 14.66v.37h8.45l-.07-2.22-.19-6.09-.14-6v-.7c0-3.28.21-4.24.88-5.64a6.1 6.1 0 0 1 10.29 0c.66 1.4.88 2.36.88 5.64v.7l-.14 6-.19 6.09-.07 2.22h8.28l-.09-2-.06-5.17m167-.06v-3.59l.12-6c0-5.22-1.22-8.17-4.23-10.21a13.45 13.45 0 0 0-7.7-2.09c-4.24 0-7.8 1.35-10.1 3.76a10.82 10.82 0 0 0-8.69-3.7h-4.69c-7.15 0-11.42 4.6-11.42 12.3v1.73c0 7.55 0 9.33-.33 14.66v.37h8.45l-.08-2.22-.19-6.09-.13-6v-.7c0-3.28.21-4.24.88-5.64a6.1 6.1 0 0 1 10.29 0c.66 1.4.87 2.36.87 5.64v.7l-.13 6-.19 6.09-.08 2.22h8.29l-.09-2-.06-5.17v-4.8l.05-5.31a8.61 8.61 0 0 1 .72-2.9 5.79 5.79 0 0 1 1.46-2 5.41 5.41 0 0 1 3.73-1.37 5.24 5.24 0 0 1 5.11 3.58c.31 1.16.37 2.25.37 6.17 0 4.55-.06 7.65-.39 12l-.12 1.44v.38h8.5l-.22-1.69v-5.56m24.38-5.81v.71c0 2.7-.08 3.65-.64 4.75a3.61 3.61 0 0 1-1.62 1.56A8.14 8.14 0 0 1 287 38a5.73 5.73 0 0 1-4.05-1.51 3.38 3.38 0 0 1-.26-4.07c1.07-1.69 3.65-2.37 8.91-2.37h1.79m7.49-5.88v-.6c0-4.64-1.43-7.17-4.93-8.74a17.84 17.84 0 0 0-7.59-1.36 38.28 38.28 0 0 0-10.91 1.58l-.28.09.82 5.67.41-.17a22.25 22.25 0 0 1 8.67-1.94c4.49 0 6.32 1.66 6.32 5.73v.69c-6.29-.34-11 .09-13.67 1.26-3.7 1.63-5.58 4.2-5.58 7.62a9.27 9.27 0 0 0 5.66 8.34c3.81 1.69 9.34 1.27 11.53 1 1.8-.22 7.76-1.28 9.07-6 .58-2.06.53-10.45.52-13.21m-91.68 6.51v.71c0 2.7-.07 3.65-.63 4.75a3.63 3.63 0 0 1-1.61 1.56 8.1 8.1 0 0 1-4.13.9 5.73 5.73 0 0 1-4-1.52 3.38 3.38 0 0 1-.26-4.07c1.07-1.69 3.66-2.37 8.91-2.37h1.79m7.49-6.48c0-4.64-1.43-7.17-4.93-8.74a17.81 17.81 0 0 0-7.59-1.36 38.28 38.28 0 0 0-10.91 1.58l-.28.09.82 5.68.41-.18a22.47 22.47 0 0 1 8.67-1.94c4.49 0 6.32 1.66 6.32 5.73v.69c-6.29-.34-11 .09-13.67 1.26-3.7 1.63-5.57 4.2-5.57 7.62a9.25 9.25 0 0 0 5.65 8.34c3.81 1.69 9.34 1.27 11.53 1 1.8-.22 7.76-1.28 9.07-6 .58-2.06.54-10.45.52-13.21zM24.13 6C24.92 6 31 6.21 35 8.47l.35.17V1.71h-.1A36.65 36.65 0 0 0 22.81 0C15.75.26 10 2.67 6.14 7 2.6 11 .82 16.5 1 22.92c.18 6.13 2.15 11.24 5.7 14.78 4 4 9.92 5.93 17.16 5.7a40.18 40.18 0 0 0 7.54-.94l.38-.09-2.1-5.57-.27.06a22 22 0 0 1-4.22.59c-9 .3-14.1-4.94-14.39-14.74-.29-10 4.82-16.42 13.33-16.7M295.34 82H6.53A6.55 6.55 0 0 1 0 75.47v-13a6.55 6.55 0 0 1 6.53-6.57h288.81a6.55 6.55 0 0 1 6.53 6.53v13a6.55 6.55 0 0 1-6.53 6.57" fill="#e20613"/><path d="M22.32 61.83h3.5c4.08 0 6.79 2.54 6.79 6.35s-2.7 6.36-6.79 6.36h-3.5zm3.37 11c3.31 0 4.86-1.91 4.86-4.62s-1.55-4.65-4.86-4.65h-1.38v9.24zm8.47-2.22a4.24 4.24 0 1 1 4.24 4.1 4.1 4.1 0 0 1-4.24-4.1m6.52 0a2.3 2.3 0 1 0-4.58 0 2.3 2.3 0 1 0 4.58 0m3.95-3.92h1.89v1.45a2.85 2.85 0 0 1 2.65-1.62c1.74 0 2.94 1.23 2.94 3.36v4.66h-1.93V70c0-1.12-.52-1.77-1.63-1.77a1.87 1.87 0 0 0-2 2v4.26h-1.92zm9.37 3.9a3.8 3.8 0 0 1 3.64-4.07 2.92 2.92 0 0 1 2.73 1.53V61h1.93v13.5h-1.91l.06-1.42a3 3 0 0 1-2.75 1.59 3.85 3.85 0 0 1-3.7-4.08m6.44 0a2.2 2.2 0 0 0-2.28-2.39 2.43 2.43 0 0 0 0 4.84 2.22 2.22 0 0 0 2.28-2.45m8.27 2.53a3.14 3.14 0 0 0 2.22-.84L72 73.43a4.4 4.4 0 0 1-3.31 1.28c-2.69 0-4.43-1.74-4.43-4.1a4.06 4.06 0 0 1 4.19-4.09c2.67 0 4.18 2 4.05 4.73h-6.28a2.27 2.27 0 0 0 2.49 1.87m1.92-3.18a2 2 0 0 0-2.13-1.85 2.16 2.16 0 0 0-2.28 1.85zm8.79 1.94v-3.6h-1.17v-1.59h1.17v-3h1.89v3h2.09v1.59h-2.09v3.64c0 .92.3 1.18.79 1.18a1.45 1.45 0 0 0 1-.41l.77 1.31a2.82 2.82 0 0 1-2 .75c-1.38 0-2.41-.75-2.41-2.85M85 70.61a4.24 4.24 0 1 1 4.25 4.1 4.11 4.11 0 0 1-4.25-4.1m6.53 0a2.3 2.3 0 1 0-4.58 0 2.3 2.3 0 1 0 4.58 0m3.6-.02a3.8 3.8 0 0 1 3.64-4.07 2.91 2.91 0 0 1 2.73 1.53V61h1.91v13.5h-1.91l.06-1.42a3 3 0 0 1-2.75 1.59 3.85 3.85 0 0 1-3.68-4.12m6.45 0a2.21 2.21 0 0 0-2.28-2.35 2.43 2.43 0 0 0 0 4.84 2.23 2.23 0 0 0 2.28-2.45m3.83.02a4.24 4.24 0 1 1 4.24 4.1 4.1 4.1 0 0 1-4.24-4.1m6.52 0a2.29 2.29 0 1 0-4.57 0 2.29 2.29 0 1 0 4.57 0m3.15 2.47l1.29-.9a2.42 2.42 0 0 0 2.11 1c1 0 1.38-.32 1.38-.84s-.58-.73-1.9-1.1c-1.16-.32-2.32-.86-2.32-2.41s1.25-2.32 2.8-2.32a3.55 3.55 0 0 1 2.73 1.18l-1.1 1.08a2.14 2.14 0 0 0-1.63-.77c-.71 0-1.1.26-1.1.73s.49.73 1.72 1.05 2.58.8 2.58 2.47c0 1.34-.82 2.45-3 2.45a4 4 0 0 1-3.51-1.63m16.72.05a3.16 3.16 0 0 0 2.22-.84l1.1 1.15a4.36 4.36 0 0 1-3.3 1.28c-2.7 0-4.44-1.74-4.44-4.1a4.07 4.07 0 0 1 4.19-4.09c2.68 0 4.19 2 4.06 4.73h-6.32a2.27 2.27 0 0 0 2.49 1.87m1.92-3.18a2 2 0 0 0-2.13-1.85 2.16 2.16 0 0 0-2.28 1.85zm3.91-3.25h1.89v1.45a2.86 2.86 0 0 1 2.66-1.62c1.73 0 2.93 1.23 2.93 3.36v4.66h-1.89V70c0-1.12-.52-1.77-1.62-1.77a1.88 1.88 0 0 0-2 2v4.26h-1.89zm9.37 3.92a4 4 0 0 1 4.18-4.09 3.77 3.77 0 0 1 3.18 1.48l-1.34 1.09a2.35 2.35 0 1 0-1.84 3.91 2.39 2.39 0 0 0 1.93-.88l1.29 1.13a4 4 0 0 1-3.22 1.42 4 4 0 0 1-4.18-4.1m9.12.79v-4.67h1.89v4.52c0 1.12.52 1.78 1.63 1.78a1.87 1.87 0 0 0 2-2v-4.3h1.88v7.85h-1.88V73.1a2.8 2.8 0 0 1-2.63 1.61c-1.72 0-2.92-1.22-2.92-3.35M170 73.12a3.16 3.16 0 0 0 2.22-.84l1.1 1.15a4.36 4.36 0 0 1-3.3 1.28c-2.7 0-4.43-1.74-4.43-4.1a4.06 4.06 0 0 1 4.18-4.09c2.68 0 4.19 2 4.06 4.73h-6.33a2.27 2.27 0 0 0 2.5 1.87m1.92-3.18a2 2 0 0 0-2.13-1.85 2.16 2.16 0 0 0-2.28 1.85zm3.9-3.25h1.89v1.45a2.86 2.86 0 0 1 2.66-1.62c1.73 0 2.93 1.23 2.93 3.36v4.66h-1.89V70c0-1.12-.52-1.77-1.62-1.77a1.88 1.88 0 0 0-2 2v4.26h-1.89zm10.26 5.19v-3.6h-1.17v-1.59h1.17v-3H188v3h2.1v1.59H188v3.64c0 .92.3 1.18.79 1.18a1.45 1.45 0 0 0 1-.41l.78 1.29a2.81 2.81 0 0 1-2 .75c-1.39 0-2.42-.75-2.42-2.85m6.03-5.19h1.89v1.47a2.37 2.37 0 0 1 2.28-1.62 2.41 2.41 0 0 1 1.29.33l-.64 1.7a2.19 2.19 0 0 0-1-.26c-1.13 0-1.89.66-1.89 2.41v3.82h-1.89zm9.87 1.4A2.59 2.59 0 0 0 200 69l-1.08-1.1a3.92 3.92 0 0 1 3.29-1.4 3.06 3.06 0 0 1 3.31 3.38v4.64h-1.89l.06-1.12a2.72 2.72 0 0 1-2.47 1.29c-1.55 0-2.82-.73-2.82-2.49s1.31-2.34 3.08-2.36h2.15c0-1.25-.56-1.77-1.57-1.77m-.45 3.08c-.82 0-1.36.3-1.36 1s.52 1 1.49 1 1.89-.54 1.89-1.4v-.62zm6.22-4.46h1.89v1.45a2.84 2.84 0 0 1 2.65-1.62c1.74 0 2.94 1.23 2.94 3.36v4.66h-1.89V70c0-1.12-.52-1.77-1.63-1.77a1.87 1.87 0 0 0-2 2v4.26h-1.89zm13.33 6.39l1.29-.9a2.43 2.43 0 0 0 2.11 1c1 0 1.38-.32 1.38-.84s-.57-.73-1.9-1.1c-1.16-.32-2.32-.86-2.32-2.41s1.25-2.32 2.8-2.32a3.52 3.52 0 0 1 2.73 1.18l-1.1 1.08a2.12 2.12 0 0 0-1.63-.77c-.71 0-1.1.26-1.1.73s.49.73 1.72 1.05 2.58.8 2.58 2.47c0 1.34-.82 2.45-3.05 2.45a4 4 0 0 1-3.51-1.63m8.39-1.71v-4.67h1.89v4.52c0 1.12.52 1.78 1.63 1.78a1.87 1.87 0 0 0 2-2v-4.3H237v7.85h-1.89V73.1a2.82 2.82 0 0 1-2.64 1.61c-1.72 0-2.92-1.22-2.92-3.35m13.69-.75a4 4 0 0 1 4.19-4.09A3.76 3.76 0 0 1 250.6 68l-1.34 1.09a2.35 2.35 0 1 0-1.83 3.91 2.38 2.38 0 0 0 1.92-.88l1.29 1.13a3.94 3.94 0 0 1-3.21 1.42 4 4 0 0 1-4.19-4.1m12.38-2.48a2.59 2.59 0 0 0-2.06.93l-1.09-1.1a3.94 3.94 0 0 1 3.3-1.4 3.06 3.06 0 0 1 3.3 3.38v4.64h-1.88l.05-1.12a2.72 2.72 0 0 1-2.47 1.29c-1.55 0-2.82-.73-2.82-2.49s1.31-2.34 3.09-2.36h2.15c0-1.25-.56-1.77-1.57-1.77m-.45 3.08c-.83 0-1.37.3-1.37 1s.53 1 1.5 1 1.89-.54 1.89-1.4v-.62zm5.51 1.91l1.29-.9a2.45 2.45 0 0 0 2.12 1c1 0 1.38-.32 1.38-.84s-.58-.73-1.91-1.1c-1.16-.32-2.32-.86-2.32-2.41s1.26-2.32 2.81-2.32a3.55 3.55 0 0 1 2.73 1.18l-1.11 1.08a2.1 2.1 0 0 0-1.62-.77c-.71 0-1.11.26-1.11.73s.49.73 1.72 1.05 2.58.8 2.58 2.47c0 1.34-.82 2.45-3 2.45a4 4 0 0 1-3.52-1.63m11.61-4.98a2.59 2.59 0 0 0-2.06.93l-1.08-1.1a3.92 3.92 0 0 1 3.29-1.4 3.06 3.06 0 0 1 3.31 3.38v4.64h-1.89l.06-1.12a2.72 2.72 0 0 1-2.47 1.29c-1.55 0-2.82-.73-2.82-2.49s1.3-2.34 3.08-2.36h2.15c0-1.25-.56-1.77-1.57-1.77m-.45 3.08c-.82 0-1.36.3-1.36 1s.52 1 1.49 1 1.89-.54 1.89-1.4v-.62zm5.83 2.19a1.29 1.29 0 0 1 2.57 0 1.29 1.29 0 1 1-2.57 0" fill="#fff"/></g></g></g></g></svg>